<?xml version="1.0" encoding="utf-8"?>
<!-- Generator: Adobe Illustrator 27.7.0, SVG Export Plug-In . SVG Version: 6.00 Build 0)  -->
<svg version="1.1" id="Layer_1" xmlns="http://www.w3.org/2000/svg" xmlns:xlink="http://www.w3.org/1999/xlink" x="0px" y="0px"
	 viewBox="0 0 200 200" style="enable-background:new 0 0 200 200;" xml:space="preserve">
<style type="text/css">
	.st0{fill:none;}
</style>
<g>
	<path class="st0" d="M84.1,40.3c-26,0-47.1,21.1-47.1,47.1s21.1,47.1,47.1,47.1c26,0,47.1-21.1,47.1-47.1S110.1,40.3,84.1,40.3z"/>
	<path d="M176.2,163.5l-42.2-42.2c6.6-9.7,10.5-21.3,10.5-33.9c0-33.2-27-60.3-60.3-60.3c-33.2,0-60.3,27-60.3,60.3
		c0,33.2,27,60.3,60.3,60.3c15.9,0,30.4-6.3,41.2-16.4l41.6,41.6L176.2,163.5z M84.1,134.5c-26,0-47.1-21.1-47.1-47.1
		s21.1-47.1,47.1-47.1c26,0,47.1,21.1,47.1,47.1S110.1,134.5,84.1,134.5z"/>
</g>
</svg>
